<?xml version="1.0" encoding="utf-8"?>
<!-- Generator: Adobe Illustrator 25.2.3, SVG Export Plug-In . SVG Version: 6.00 Build 0)  -->
<svg version="1.1" id="Ebene_4" xmlns="http://www.w3.org/2000/svg" xmlns:xlink="http://www.w3.org/1999/xlink" x="0px" y="0px"
	 viewBox="0 0 182.5 217.4" style="enable-background:new 0 0 182.5 217.4;" xml:space="preserve">
<style type="text/css">
	.st0{fill:none;}
</style>
<path d="M158.8,27.9c-13.1,0-23.7,10.6-23.7,23.7s10.6,23.7,23.7,23.7s23.7-10.6,23.7-23.7S171.9,27.9,158.8,27.9L158.8,27.9z
	 M158.8,62.9c-6.2,0-11.2-5-11.2-11.2s5-11.2,11.2-11.2s11.2,5,11.2,11.2S165,62.9,158.8,62.9z M91.9,0C78.8,0,68.2,10.6,68.2,23.7
	s10.6,23.7,23.7,23.7s23.7-10.6,23.7-23.7S105,0,91.9,0z M91.9,35c-6.2,0-11.2-5-11.2-11.2s5-11.2,11.2-11.2s11.2,5,11.2,11.2
	S98.1,35,91.9,35z M23.7,27.9C10.6,27.9,0,38.5,0,51.6s10.6,23.7,23.7,23.7s23.7-10.6,23.7-23.7C47.5,38.5,36.8,27.9,23.7,27.9z
	 M23.7,62.9c-6.2,0-11.2-5-11.2-11.2s5-11.2,11.2-11.2s11.2,5,11.2,11.2S29.9,62.9,23.7,62.9z"/>
<path class="st0" d="M132.4,194.6c4.3,1,9.6,0,14.2-3c3.9-2.6,6.7-6.2,8-10.1c1.1-3.5,0.8-6.8-0.9-9.3s-4.6-4.1-8.2-4.5
	c-0.5-0.1-1.1-0.1-1.7-0.1c-1.2,0-2.3,0.1-3.5,0.4c-1,5.3-2.4,11.1-4.2,16.6C134.9,188.1,133.7,191.4,132.4,194.6L132.4,194.6z"/>
<path d="M165,164.7c-4-6-10.4-9.7-18.1-10.5c-1.5-0.2-3-0.2-4.6-0.1c0.3-3,0.4-4.9,0.4-5.1l0.4-6.9H34.9l0.4,6.9
	c0,0.8,1.1,19.4,6.7,35.7c5.3,15.6,10.3,30.4,32,32.1c5.8,0.4,10.2,0.6,13.4,0.6h3.2c3.3,0,7.6-0.2,13.4-0.6
	c10.3-0.8,14.2-3.5,18.6-7.1c6.4-1.1,9.6-1,13.2-1c6.1,0,12.5-1.8,18.3-5.6c6.5-4.3,11.3-10.5,13.5-17.4
	C169.8,178.1,168.9,170.7,165,164.7L165,164.7z M123.7,180.5c-3,8.9-5.2,14.7-8.5,18.3c-2.8,3.1-6.4,4.5-12.2,5
	c-5,0.4-8.6,0.5-11.2,0.6h-5.6c-2.6,0-6.3-0.2-11.2-0.6c-12.5-1-15-6.7-20.7-23.3c-3-8.9-4.6-18.9-5.4-25.4h80.2l-0.3,2.7
	C127.9,164.2,126.3,172.7,123.7,180.5L123.7,180.5z M154.5,181.5c-1.2,3.9-4.1,7.5-8,10.1c-4.6,3-9.9,4-14.2,3
	c1.3-3.2,2.5-6.6,3.6-10c1.9-5.5,3.3-11.4,4.2-16.6c1.2-0.2,2.4-0.4,3.5-0.4c0.6,0,1.1,0,1.7,0.1c3.6,0.4,6.5,2,8.2,4.5
	C155.3,174.7,155.6,178,154.5,181.5L154.5,181.5z"/>
<g>
	<path d="M76.5,82.6c0.1-5.4,4.1-8.8,4.1-8.8H66.7c0,0-3.1,4.8-3.1,9.3c0,13.2,10.4,18.9,12.7,28.4c2.2,9.2-13.9,22-13.9,22h15.4
		c0,0,10.2-7.6,11.1-20.6C89.4,103.7,75.7,91.9,76.5,82.6L76.5,82.6z M109.3,82.1c0.1-5.4,4.1-8.8,4.1-8.8H99.9c0,0-2.9,4.8-2.9,9.3
		c0,13.2,9.8,18.9,12,28.4c2.1,9.2-13.1,22-13.1,22h14.7c0,0,10.2-7.6,11.1-20.6C122.2,103.3,108.5,91.5,109.3,82.1L109.3,82.1z"/>
</g>
</svg>
