<?xml version="1.0" encoding="utf-8"?>
<!-- Generator: Adobe Illustrator 25.2.3, SVG Export Plug-In . SVG Version: 6.00 Build 0)  -->
<svg version="1.1" id="Ebene_1" xmlns="http://www.w3.org/2000/svg" xmlns:xlink="http://www.w3.org/1999/xlink" x="0px" y="0px"
	 viewBox="0 0 200.9 187" style="enable-background:new 0 0 200.9 187;" xml:space="preserve">
<path d="M75.1,164.9l-42.4-39.4H0V62.3h32.5L75.1,23V164.9L75.1,164.9z M12.5,112.8h25l25,23.2V51.7L37.3,75H12.5V112.8z
	 M188.2,93.7c0,31.7-12.7,62.1-35.2,84.4l8.9,8.9c51.6-51.2,52-134.5,0.9-186.1L161.9,0L153,8.9C175.6,31.3,188.3,61.9,188.2,93.7
	L188.2,93.7z"/>
<path d="M135.8,26.9c36.8,36.9,36.7,96.6-0.2,133.3l-0.2,0.2l8.9,8.9c41.9-41.5,42.2-109.1,0.7-151l-0.7-0.7l-8.8,8.9L135.8,26.9z"
	/>
<path d="M117.9,44.8c27,27,26.9,70.8-0.1,97.7l-0.2,0.1l8.9,8.9l0.2-0.1c31.9-31.9,32-83.6,0.2-115.5l-0.3-0.3l-8.9,8.9
	C117.7,44.6,117.8,44.7,117.9,44.8L117.9,44.8z"/>
</svg>
