<?xml version="1.0" encoding="utf-8"?>
<!-- Generator: Adobe Illustrator 25.2.3, SVG Export Plug-In . SVG Version: 6.00 Build 0)  -->
<svg version="1.1" id="Ebene_1" xmlns="http://www.w3.org/2000/svg" xmlns:xlink="http://www.w3.org/1999/xlink" x="0px" y="0px"
	 viewBox="0 0 182.5 213.1" style="enable-background:new 0 0 182.5 213.1;" xml:space="preserve">
<path d="M158.8,27.9c-13.1,0-23.7,10.6-23.7,23.7s10.6,23.7,23.7,23.7s23.7-10.6,23.7-23.7S171.9,27.9,158.8,27.9L158.8,27.9z
	 M158.8,62.9c-6.2,0-11.2-5-11.2-11.2s5-11.2,11.2-11.2s11.2,5,11.2,11.2S165,62.9,158.8,62.9z M91.9,0C78.8,0,68.2,10.6,68.2,23.7
	s10.6,23.7,23.7,23.7s23.7-10.6,23.7-23.7S105,0,91.9,0z M91.9,35c-6.2,0-11.2-5-11.2-11.2s5-11.2,11.2-11.2s11.2,5,11.2,11.2
	S98.1,35,91.9,35z M23.7,27.9C10.6,27.9,0,38.5,0,51.6s10.6,23.7,23.7,23.7s23.7-10.6,23.7-23.7C47.5,38.5,36.8,27.9,23.7,27.9z
	 M23.7,62.9c-6.2,0-11.2-5-11.2-11.2s5-11.2,11.2-11.2s11.2,5,11.2,11.2S29.9,62.9,23.7,62.9z M118.1,97.3l3.4,1.9V59.9h-13.6v38.6
	l3.2-1.5C113.6,95.8,115.7,95.9,118.1,97.3L118.1,97.3z M142.6,199.2h-12.8l-8.2-5.4h-0.2v-16.1l-3.4,1.9c-2.4,1.4-4.5,1.5-7,0.3
	l-3.2-1.5v15.3H107l-6.6,5.4H86.3l-2.4,13.5H145L142.6,199.2L142.6,199.2z M108.8,171c1.8,1.4,3.8,2.2,5.9,2.2s4.1-0.7,5.9-2.2
	c3.3-2.5,6.6-7.8,8.6-16.1c1.4-6,1.9-10.7,1.9-16.6c0-14.8-4.2-27.6-10.6-32.6c-1.9-1.4-3.8-2.1-5.9-2.1s-4,0.7-5.9,2.1
	c-4,3-7.2,9.2-9,17.5l-0.6,3.2c-0.7,4-1,8-1,11.8C98.2,153.3,102.4,166.1,108.8,171L108.8,171z M114.8,154.9c-1.2-2.4-3-7.9-3-16.4
	c0-8.4,1.8-13.9,3-16.3c1.2,2.5,3,8,3,16.3C117.8,147,116.1,152.5,114.8,154.9z M38.4,162.6H24.3l10,50.5h35.9l10.3-50.2l-5.6-0.3
	H38.4z M45.9,199.5l-5-23.3l22.9,0.1l-5.7,23.2C58.1,199.5,45.9,199.5,45.9,199.5z"/>
</svg>
