<?xml version="1.0" encoding="utf-8"?>
<!-- Generator: Adobe Illustrator 25.2.3, SVG Export Plug-In . SVG Version: 6.00 Build 0)  -->
<svg version="1.1" id="Ebene_1" xmlns="http://www.w3.org/2000/svg" xmlns:xlink="http://www.w3.org/1999/xlink" x="0px" y="0px"
	 viewBox="0 0 113.4 189" style="enable-background:new 0 0 113.4 189;" xml:space="preserve">
<path d="M106.7,0H6.5L0.2,12.6H113L106.7,0z M106.7,19.2H6.4L0.2,31.7H113L106.7,19.2z M107.1,36.9H6.8L0.5,49.4h112.9L107.1,36.9z
	 M106.8,54.4H6.6L0.3,66.9h112.8L106.8,54.4z M106.8,71.9H6.6L0.3,84.4h112.8L106.8,71.9z M106.7,89.2H6.4l-6.2,12.6H113L106.7,89.2
	z M106.9,106.6H6.7l-6.3,12.6h112.8L106.9,106.6z M106.9,124H6.7l-6.3,12.6h112.8L106.9,124z M106.8,141.4H6.6L0.3,154h112.8
	L106.8,141.4z M106.8,158.9H6.6l-6.3,12.6h112.8L106.8,158.9z M106.5,176.4H6.2L0,189h112.8L106.5,176.4z"/>
</svg>
