<?xml version="1.0" encoding="utf-8"?>
<!-- Generator: Adobe Illustrator 25.2.3, SVG Export Plug-In . SVG Version: 6.00 Build 0)  -->
<svg version="1.1" id="Ebene_3" xmlns="http://www.w3.org/2000/svg" xmlns:xlink="http://www.w3.org/1999/xlink" x="0px" y="0px"
	 viewBox="0 0 188.6 238.5" style="enable-background:new 0 0 188.6 238.5;" xml:space="preserve">
<path d="M163.5,101l-53.9-5c0.1-0.5,0.1-1,0.1-1.6c0-4.5-2-8.8-5.4-11.7L138.9,41c-10.8-9-24-14.5-38-15.7l-5,53.8
	c-0.5-0.1-1-0.1-1.6-0.1c-4.6,0-9,2.1-11.9,5.6L40.8,51.2c-8.5,11.1-14,24.3-15.7,38.1L79,93.2c0,0.4-0.1,0.8-0.1,1.2
	c0,4.6,2.1,9,5.6,11.9l-33.7,42.1c10.8,8.8,24.1,14.1,38,15.1l3.9-53.8c0.5,0.1,1,0.1,1.5,0.1c4.5,0,8.8-2,11.7-5.4l41.5,34.8
	C156.6,128.4,162.2,115,163.5,101L163.5,101z"/>
<path d="M94.3,0C42.2,0,0,42.2,0,94.3s42.2,94.3,94.3,94.3s94.3-42.2,94.3-94.3C188.6,42.3,146.4,0.1,94.3,0L94.3,0z M94.3,176
	c-45,0-81.6-36.5-81.6-81.6s36.5-81.6,81.6-81.6s81.6,36.5,81.6,81.6C175.9,139.4,139.4,176,94.3,176z M94.3,200.6
	c-10.5-0.1-19.1,8.4-19.1,18.8c-0.1,10.5,8.4,19.1,18.8,19.1c10.5,0.1,19.1-8.4,19.1-18.8v-0.1C113.2,209.1,104.8,200.6,94.3,200.6z
	 M94.3,227.1c-4.2,0-7.5-3.4-7.5-7.5c0-4.2,3.4-7.5,7.5-7.5c4.2,0,7.5,3.4,7.5,7.5S98.5,227.1,94.3,227.1z"/>
</svg>
