<?xml version="1.0" encoding="utf-8"?>
<!-- Generator: Adobe Illustrator 25.2.3, SVG Export Plug-In . SVG Version: 6.00 Build 0)  -->
<svg version="1.1" id="Ebene_6" xmlns="http://www.w3.org/2000/svg" xmlns:xlink="http://www.w3.org/1999/xlink" x="0px" y="0px"
	 viewBox="0 0 213.6 239.8" style="enable-background:new 0 0 213.6 239.8;" xml:space="preserve">
<path d="M12.6,46.9c2.3,0,4.1,1.8,4.1,4.1s-1.8,4.1-4.1,4.1S8.5,53.3,8.5,51C8.5,48.8,10.3,46.9,12.6,46.9 M12.6,38.4
	C5.6,38.4,0,44.1,0,51s5.7,12.6,12.6,12.6S25.2,57.9,25.2,51S19.6,38.4,12.6,38.4z M62.9,38.6c-17,0-30.8,16.9-30.8,37.6
	s13.8,37.6,30.8,37.6c4.4,0,8.7-1.1,12.5-3.2V96c-3.4,3.9-7.7,6.2-12.5,6.2c-10.6,0-19.3-11.7-19.3-26.1S52.3,50,62.9,50
	c4.8,0,9.1,2.4,12.5,6.2V41.9C71.6,39.8,67.3,38.7,62.9,38.6z M125.3,152.2V50.8h-12v101.4c-17.1,3.3-28.2,19.8-24.9,36.9
	s19.8,28.2,36.9,24.9s28.2-19.8,24.9-36.9C147.8,164.5,137.9,154.7,125.3,152.2z"/>
<path d="M150.8,136V31.9C151.1,14.6,137.3,0.3,120,0S88.4,13.5,88.1,30.8v1.1H88v104.2c-26,17.3-33,52.5-15.7,78.5
	s52.5,33,78.5,15.7s33-52.5,15.7-78.5C162.3,145.5,157,140.2,150.8,136L150.8,136z M119.4,227.7c-24.6,0-44.6-19.9-44.6-44.6
	c0-17.1,9.8-32.7,25.2-40.1V31.9h0.1c-0.2-10.7,8.2-19.6,18.9-19.8s19.6,8.2,19.8,18.9v112c22.2,10.7,31.5,37.3,20.8,59.5
	C152.1,217.9,136.5,227.7,119.4,227.7L119.4,227.7z M163.3,76.3h50.3v12.6h-50.3V76.3z M163.3,51.1h50.3v12.6h-50.3V51.1z"/>
<path d="M163.3,101.5h50.3v12.6h-50.3V101.5z"/>
</svg>
