<?xml version="1.0" encoding="utf-8"?>
<!-- Generator: Adobe Illustrator 25.2.3, SVG Export Plug-In . SVG Version: 6.00 Build 0)  -->
<svg version="1.1" id="Ebene_1" xmlns="http://www.w3.org/2000/svg" xmlns:xlink="http://www.w3.org/1999/xlink" x="0px" y="0px"
	 viewBox="0 0 184.3 184.4" style="enable-background:new 0 0 184.3 184.4;" xml:space="preserve">
<style type="text/css">
	.st0{opacity:0.3;enable-background:new    ;}
</style>
<path d="M65.1,103.4c-2.6,14.3-8.9,21.4-19.4,21.2c-13.2,0-19.8-11.1-19.8-33s6.6-33,19.8-33c10.3,0,16.7,7.1,19.1,21.2h-8
	c-1.6-9.2-5.4-13.9-11.1-13.9c-8.2,0-12.3,8.5-12.3,25.7s4,25.7,12,25.7c5.6,0,9.4-4.7,11.1-13.9H65.1L65.1,103.4z M92.2,58.6
	c13.2,0,19.8,11.1,19.8,33s-6.6,33-19.8,33s-19.8-11.1-19.8-33S79,58.6,92.2,58.6z M92.2,65.9c-8,0-12,8.5-12,25.7
	c0,17,4,25.4,12,25.7c8,0,12-8.7,12-25.7S100.2,65.9,92.2,65.9z M119.5,107.7c1.2-10.3,5.2-16.3,13.6-16c6.9,0.2,11.6,4.9,11.8,13
	c0.2,2.4-0.5,5.2-2.2,8.2c-1.4,2.2-3.5,4.2-6.9,6.6l-3.5,3.1c-2.4,1.9-4,3.8-5.2,5.2c-0.7,1.2-1.4,2.9-1.9,5.2h20.5v5.4h-26.8
	c0-4.7,0.7-8.5,2.4-11.8c1.9-2.6,4-5.4,7.1-7.8l3.8-3.1c5.4-4,7.8-7.1,7.6-10.9c-0.9-4.7-2.9-7.8-7.1-8s-6.9,3.3-7.6,10.6
	L119.5,107.7L119.5,107.7z"/>
<path class="st0" d="M92.4,184.4V175c1.4,0,3.1,0,4.5-0.2l0.5,9.4C95.7,184.4,94.1,184.4,92.4,184.4L92.4,184.4z M87.5,184.4
	c-1.6,0-3.3-0.2-4.9-0.5l0.9-9.4c1.4,0.2,3.1,0.2,4.5,0.2L87.5,184.4z M102.5,184l-0.9-9.4c1.4-0.2,3.1-0.5,4.5-0.7l1.6,9.2
	C105.8,183.5,104.2,183.7,102.5,184L102.5,184z M77.6,183.3c-1.6-0.2-3.3-0.5-4.9-0.9l1.9-9.2c1.4,0.2,2.9,0.5,4.5,0.7L77.6,183.3z
	 M112.2,182.4l-2.2-9.2c1.4-0.2,2.9-0.7,4.2-1.2l2.6,9.2C115.5,181.7,113.9,181.9,112.2,182.4L112.2,182.4z M67.9,181.2
	c-1.6-0.5-3.3-0.9-4.7-1.4l3.1-8.9c1.4,0.5,2.9,0.9,4.2,1.2L67.9,181.2z M121.9,179.5l-3.1-8.9c1.4-0.5,2.9-0.9,4.2-1.6l3.5,8.7
	C125,178.6,123.5,179,121.9,179.5L121.9,179.5z M58.3,178.1c-1.6-0.7-3.1-1.2-4.7-1.9l4-8.5c1.4,0.7,2.9,1.2,4.2,1.6L58.3,178.1
	L58.3,178.1z M131.1,176l-4-8.5c1.4-0.7,2.6-1.4,4-1.9l4.5,8.2C134.1,174.3,132.7,175.3,131.1,176z M49.3,173.9
	c-1.4-0.7-2.9-1.6-4.2-2.4l4.8-8c1.2,0.7,2.6,1.4,4,2.2C53.9,165.7,49.3,173.9,49.3,173.9z M140,171.3l-4.9-8
	c1.2-0.7,2.6-1.6,3.8-2.4l5.4,7.8C142.9,169.4,141.5,170.3,140,171.3L140,171.3z M40.8,168.7c-1.4-0.9-2.9-1.9-4-2.9l5.6-7.6
	c1.2,0.9,2.4,1.9,3.5,2.6L40.8,168.7z M148,165.6l-5.6-7.6c1.2-0.9,2.4-1.9,3.5-2.9l6.1,7.1C150.9,163.5,149.5,164.7,148,165.6z
	 M32.8,162.8c-1.2-1.2-2.6-2.2-3.8-3.3l6.4-6.9c1.2,0.9,2.2,2.2,3.3,3.1L32.8,162.8L32.8,162.8z M25.5,156c-1.2-1.2-2.4-2.4-3.3-3.8
	l7.1-6.1c0.9,1.2,1.9,2.4,3.1,3.3L25.5,156z M19.1,148.4c-0.9-1.4-1.9-2.6-2.9-4L24,139c0.9,1.2,1.6,2.4,2.6,3.5L19.1,148.4z
	 M13.5,140.2c-0.9-1.4-1.6-2.9-2.4-4.2l8.2-4.5c0.7,1.4,1.4,2.6,2.2,4L13.5,140.2z M8.8,131.5c-0.7-1.4-1.4-3.1-1.9-4.5l8.7-3.5
	c0.5,1.4,1.2,2.9,1.9,4L8.8,131.5z M5,122c-0.5-1.6-0.9-3.1-1.4-4.7l9.2-2.6c0.5,1.4,0.9,2.9,1.4,4.2L5,122z M2.2,112.6
	c-0.5-1.6-0.7-3.3-0.9-4.9l9.2-1.6c0.2,1.4,0.5,2.9,0.9,4.5L2.2,112.6z M0.5,102.7c-0.2-1.6-0.2-3.3-0.5-4.9l9.4-0.5
	c0,1.4,0.2,3.1,0.5,4.5L0.5,102.7z M9.5,92.8H0.1v-0.5c0-1.6,0-3.3,0.2-4.9l9.4,0.5c0,1.4-0.2,3.1-0.2,4.5V92.8z M9.9,83.4l-9.4-0.9
	c0.2-1.6,0.5-3.3,0.7-4.9l9.2,1.4C10.4,80.3,10.2,82,9.9,83.4z M11.3,74.7l-9.2-2.2c0.5-1.6,0.7-3.3,1.2-4.9l9.2,2.6
	C12,71.6,11.6,73,11.3,74.7L11.3,74.7z M13.7,65.9l-8.9-3.1c0.5-1.6,1.2-3.1,1.6-4.7l8.7,3.5C14.6,63.1,14.2,64.6,13.7,65.9z
	 M17,57.7l-8.5-4c0.7-1.4,1.4-3.1,2.2-4.5l8.2,4.5C18.4,54.8,17.7,56.3,17,57.7z M21.3,49.7l-8-4.9c0.9-1.4,1.6-2.9,2.6-4.2l7.8,5.2
	C22.9,47.1,22,48.5,21.3,49.7z M26.4,42.4l-7.6-5.6c0.9-1.4,2.2-2.6,3.1-3.8l7.1,6.1C28.1,40,27.1,41.2,26.4,42.4z M32.1,35.6
	L25.2,29l3.5-3.5l6.6,6.9C34.2,33.2,33.3,34.3,32.1,35.6z M38.7,29.2l-6.1-7.1c1.2-1.2,2.6-2.2,3.8-3.1l5.6,7.6
	C41,27.3,39.9,28.3,38.7,29.2z M45.8,23.8L40.6,16c1.4-0.9,2.9-1.9,4.2-2.6l4.9,8C48.3,22.1,46.9,23.1,45.8,23.8z M53.3,19.3
	l-4.5-8.2c1.4-0.7,3.1-1.4,4.5-2.2l4,8.5C56.1,17.8,54.7,18.6,53.3,19.3z M61.5,15.5L58,6.8c1.6-0.7,3.1-1.2,4.7-1.6l3.1,8.9
	C64.4,14.4,63,14.8,61.5,15.5z M70,12.7l-2.6-9.2C69,3,70.7,2.6,72.3,2.3l2.2,9.2C72.8,11.8,71.5,12.2,70,12.7L70,12.7z M78.8,10.8
	l-1.5-9.3c1.6-0.2,3.3-0.5,4.9-0.7l0.9,9.4C81.6,10.4,80.2,10.6,78.8,10.8L78.8,10.8z M87.7,9.6l-0.5-9.4c1.6,0,3.3-0.2,4.9-0.2v9.4
	C90.5,9.6,89.1,9.6,87.7,9.6z"/>
<path d="M155.8,159l-6.6-6.9c1.2-0.9,2.2-2.2,3.1-3.1l6.9,6.4C158.2,156.7,157,157.8,155.8,159z M162.7,152l-7.3-6.1
	c0.9-1.2,1.9-2.4,2.9-3.5l7.6,5.6C164.7,149.4,163.6,150.5,162.7,152z M168.5,144l-7.8-5.2c0.9-1.2,1.6-2.6,2.4-3.8l8,4.9
	C170.4,141.1,169.4,142.5,168.5,144L168.5,144z M173.7,135.3l-8.2-4.5c0.7-1.4,1.4-2.6,1.9-4l8.5,4
	C175.4,132.4,174.5,133.8,173.7,135.3z M177.9,126.2l-8.7-3.5c0.5-1.4,1.2-2.9,1.6-4.2l8.9,3.1C179.2,123.2,178.5,124.6,177.9,126.2
	L177.9,126.2z M181,116.8l-9.2-2.6c0.5-1.4,0.7-2.9,1.2-4.2l9.2,1.9C181.9,113.5,181.5,115.2,181,116.8L181,116.8z M183.2,107
	l-9.2-1.4c0.2-1.4,0.5-2.9,0.5-4.5l9.4,0.9C183.6,103.9,183.4,105.5,183.2,107z M184.3,97l-9.4-0.5v-4.2l9.4-0.2V97z M174.9,87.6
	c0-1.4-0.2-3.1-0.5-4.5l9.4-0.9c0.2,1.6,0.2,3.3,0.5,4.9L174.9,87.6L174.9,87.6z M173.7,78.7c-0.2-1.4-0.5-2.9-0.9-4.5L182,72
	c0.5,1.6,0.7,3.3,0.9,4.9L173.7,78.7L173.7,78.7z M171.8,70c-0.5-1.4-0.9-2.9-1.4-4.2l8.9-3.1c0.5,1.6,0.9,3.1,1.4,4.7L171.8,70
	L171.8,70z M169,61.5c-0.5-1.4-1.2-2.9-1.9-4l8.5-4c0.7,1.4,1.4,3.1,1.9,4.5L169,61.5z M165.2,53.5c-0.7-1.4-1.4-2.6-2.2-3.8l8-4.9
	c0.9,1.4,1.6,2.9,2.4,4.2L165.2,53.5z M160.5,45.9c-0.9-1.2-1.6-2.4-2.6-3.5l7.6-5.6c0.9,1.4,1.9,2.6,2.9,4L160.5,45.9z M155.1,38.6
	c-0.9-1.2-1.9-2.4-3.1-3.3l6.9-6.6c1.2,1.2,2.4,2.4,3.3,3.8L155.1,38.6L155.1,38.6z M148.9,32.3c-1.2-0.9-2.2-2.2-3.3-3.1l6.1-7.1
	c1.2,1.2,2.6,2.2,3.8,3.3C155.5,25.4,148.9,32.3,148.9,32.3z M142.2,26.3c-1.2-0.9-2.4-1.9-3.5-2.6l5.2-7.8c1.4,0.9,2.9,1.9,4,2.9
	L142.2,26.3z M134.8,21.4c-1.2-0.7-2.6-1.4-4-2.2l4.5-8.2c1.4,0.7,2.9,1.6,4.2,2.4L134.8,21.4z M126.8,17.2c-1.4-0.7-2.9-1.2-4-1.9
	l3.5-8.7c1.6,0.7,3.1,1.2,4.5,1.9L126.8,17.2z M118.6,13.8c-1.4-0.5-2.9-0.9-4.2-1.4l2.6-9.2c1.6,0.5,3.3,0.9,4.7,1.4L118.6,13.8z
	 M109.9,11.5c-1.4-0.2-2.9-0.7-4.5-0.9l1.4-9.2c1.6,0.2,3.3,0.5,4.9,0.9L109.9,11.5L109.9,11.5z M101.1,10.1
	c-1.4-0.2-3.1-0.2-4.5-0.5l0.5-9.4c1.6,0,3.3,0.2,4.9,0.5L101.1,10.1z"/>
</svg>
