<?xml version="1.0" encoding="utf-8"?>
<!-- Generator: Adobe Illustrator 25.2.3, SVG Export Plug-In . SVG Version: 6.00 Build 0)  -->
<svg version="1.1" id="Ebene_1" xmlns="http://www.w3.org/2000/svg" xmlns:xlink="http://www.w3.org/1999/xlink" x="0px" y="0px"
	 viewBox="0 0 187.8 187.8" style="enable-background:new 0 0 187.8 187.8;" xml:space="preserve">
<path d="M93.9,14.6c44,0,79.3,35.7,79.3,79.3c0,44-35.7,79.3-79.3,79.3c-44,0-79.3-35.7-79.3-79.3C14.6,49.9,49.9,14.6,93.9,14.6
	 M93.9,0C42,0,0,42,0,93.9s42,93.9,93.9,93.9s93.9-42,93.9-93.9S145.8,0,93.9,0z"/>
<path d="M100.2,133.2l-12.6,0.3V79.4h12.6V133.2z M87.6,54.3h12.6v12.6H87.6V54.3z"/>
</svg>
