<?xml version="1.0" encoding="utf-8"?>
<!-- Generator: Adobe Illustrator 25.2.3, SVG Export Plug-In . SVG Version: 6.00 Build 0)  -->
<svg version="1.1" id="Ebene_4" xmlns="http://www.w3.org/2000/svg" xmlns:xlink="http://www.w3.org/1999/xlink" x="0px" y="0px"
	 viewBox="0 0 188.6 238" style="enable-background:new 0 0 188.6 238;" xml:space="preserve">
<path d="M161.7,27.9c-13.1,0-23.7,10.6-23.7,23.7s10.6,23.7,23.7,23.7s23.7-10.6,23.7-23.7S174.8,27.9,161.7,27.9L161.7,27.9z
	 M161.7,62.9c-6.2,0-11.2-5-11.2-11.2s5-11.2,11.2-11.2s11.2,5,11.2,11.2S167.9,62.9,161.7,62.9z M94.8,0
	C81.7,0,71.1,10.6,71.1,23.7s10.6,23.7,23.7,23.7s23.7-10.6,23.7-23.7S107.9,0,94.8,0z M94.8,35c-6.2,0-11.2-5-11.2-11.2
	s5-11.2,11.2-11.2s11.2,5,11.2,11.2S101,35,94.8,35z"/>
<path d="M188.6,212.9V99.8H0v113.1h75.4v12.5H50.3V238h88v-12.6h-25.1v-12.5H188.6z M12.7,199.9v-88h163.4v88H12.7z"/>
<path d="M26.6,27.9c-13.1,0-23.7,10.6-23.7,23.7s10.6,23.7,23.7,23.7s23.7-10.6,23.7-23.7C50.4,38.5,39.7,27.9,26.6,27.9z
	 M26.6,62.9c-6.2,0-11.2-5-11.2-11.2s5-11.2,11.2-11.2s11.2,5,11.2,11.2S32.8,62.9,26.6,62.9z"/>
</svg>
