<?xml version="1.0" encoding="utf-8"?>
<!-- Generator: Adobe Illustrator 27.0.0, SVG Export Plug-In . SVG Version: 6.00 Build 0)  -->
<svg version="1.1" id="Layer_1" xmlns="http://www.w3.org/2000/svg" xmlns:xlink="http://www.w3.org/1999/xlink" x="0px" y="0px"
	 viewBox="0 0 67.7 75" style="enable-background:new 0 0 67.7 75;" xml:space="preserve">
<g>
	<path d="M41.7,2.7c-3.9,2.4-5.2,4.7-5.2,9.6c0,7.3,7.1,12.9,14,10.9c4.7-1.3,8.5-6,8.5-10.3C59,3.3,49.7-2.2,41.7,2.7z"/>
	<path d="M20.3,18.9c-1.6,1.5-2.5,3.5-2.5,5.4c0,3.5,3.7,7.9,6.8,7.9c5.6,0,9.7-5,8.3-10.2C31.6,16.3,24.5,14.6,20.3,18.9z"/>
	<path d="M5.5,28.7c-1.5,2.3-1.5,2.6,0,4.9c1.8,2.6,6.2,3.3,8.2,1.3c1.5-1.5,1.5-6,0-7.5C11.6,25.3,7.2,26,5.5,28.7z"/>
	<path d="M40.2,28.9c-3.8,1.8-7,4.8-8.9,8.4c-1.3,2.4-1.5,6.2-1.3,19.8l0.3,17h17.9H66V57.5c0-18.8-0.8-22-7.2-26.8
		C54.6,27.5,45.1,26.7,40.2,28.9z"/>
	<path d="M18.4,36.8c-4.6,3.6-5.5,6.7-5.5,18.4c0,12.3-0.2,12,8.3,12h5.3l0.4-14c0.2-7.7,0.7-14.9,1.2-16.2c0.7-2,0.4-2.2-3.1-2.2
		C22.4,34.8,20.1,35.6,18.4,36.8z"/>
	<path d="M6.5,40c-4,1.8-5.4,5.2-5.4,13.2c0,7.3,0.5,7.9,5.9,7.9h2.7l0.5-9.1c0.3-4.9,0.6-9.9,0.8-10.9C11.5,38.7,10.2,38.4,6.5,40z
		"/>
</g>
</svg>
