<?xml version="1.0" encoding="utf-8"?>
<!-- Generator: Adobe Illustrator 25.2.3, SVG Export Plug-In . SVG Version: 6.00 Build 0)  -->
<svg version="1.1" id="Ebene_1" xmlns="http://www.w3.org/2000/svg" xmlns:xlink="http://www.w3.org/1999/xlink" x="0px" y="0px"
	 viewBox="0 0 203.9 196.2" style="enable-background:new 0 0 203.9 196.2;" xml:space="preserve">
<path d="M192.6,60.4C177.8,24.9,142.8,0,102,0C49.7,0,7,41,4,92.5h14.4c2.9-43.6,39.2-78.1,83.6-78.1c34.3,0,63.9,20.7,76.8,50.3
	l-11,3.3L194,89.4l9.9-32.3L192.6,60.4z M11.3,135.8c14.8,35.5,49.8,60.4,90.6,60.4c52.3,0,95-41,98-92.5h-14.4
	c-2.9,43.6-39.2,78.1-83.6,78.1c-34.3,0-63.9-20.7-76.8-50.3l11-3.3L9.9,106.8L0,139.1L11.3,135.8L11.3,135.8z"/>
<g>
	<path d="M131.4,73.5c0,4.2-0.7,8-2.1,11.3c-1.4,3.3-3.3,6.2-5.6,8.7s-5,4.8-7.9,6.9c-3,2.1-6.1,4.2-9.4,6.1v14.8H94.8v-19.7
		c2.4-1.5,5.2-3.2,8.4-5.3c3.2-2,5.7-4,7.5-5.7c2.3-2.2,4.1-4.6,5.4-7.2s1.9-5.6,1.9-8.9c0-4.9-1.5-8.5-4.6-10.9s-7.1-3.6-12-3.6
		c-4.3,0-8.4,0.7-12.2,2.2c-3.8,1.4-6.9,2.9-9.3,4.5h-0.7V53.5c2.9-1.2,6.5-2.2,10.9-3.1s8.6-1.4,12.5-1.4c8.8,0,15.8,2.3,20.9,6.8
		C128.8,60.2,131.4,66.1,131.4,73.5L131.4,73.5z M107.4,147.3H94.2v-13.7h13.2C107.4,133.6,107.4,147.3,107.4,147.3z"/>
</g>
</svg>
