<?xml version="1.0" encoding="utf-8"?>
<!-- Generator: Adobe Illustrator 27.0.0, SVG Export Plug-In . SVG Version: 6.00 Build 0)  -->
<svg version="1.1" id="Layer_1" xmlns="http://www.w3.org/2000/svg" xmlns:xlink="http://www.w3.org/1999/xlink" x="0px" y="0px"
	 viewBox="0 0 749 652" style="enable-background:new 0 0 749 652;" xml:space="preserve">
<path d="M11.8,440.8h129.5c6.5,0,11.8-5.3,11.8-11.8V313.2c0-3.5-1.5-6.8-4.1-9.1c-2.6-2.2-6.1-3.2-9.5-2.6L9.9,323
	c-5.8,0.9-10,5.9-9.9,11.8V429C0,435.5,5.3,440.8,11.8,440.8z M23.6,344.8l106-17.7v90.1h-106V344.8z"/>
<path d="M363.2,264.1l-176.7,29.4c-5.8,0.9-10,5.9-9.9,11.8V429c0,6.5,5.3,11.8,11.8,11.8h176.7c6.5,0,11.8-5.3,11.8-11.8V275.9
	c0-3.4-1.5-6.7-4.1-9C370.1,264.7,366.7,263.6,363.2,264.1z M353.3,417.2H200.2V315.4l153.1-25.6V417.2z"/>
<path d="M9.9,582.1l129.5,21.6h1.9c6.5,0,11.8-5.3,11.8-11.8V476.1c0-6.5-5.3-11.8-11.8-11.8H11.8c-6.5,0-11.8,5.3-11.8,11.8v94.2
	C-0.1,576.2,4.1,581.2,9.9,582.1z M23.6,487.9h106V578l-106-17.7V487.9z"/>
<path d="M365.1,464.3H188.4c-6.5,0-11.8,5.3-11.8,11.8v123.7c-0.1,5.8,4.1,10.8,9.9,11.8L363.2,641h1.9c2.8,0,5.5-1,7.7-2.8
	c2.6-2.2,4.1-5.5,4.1-9V476.1C376.9,469.6,371.6,464.3,365.1,464.3z M353.3,615.3l-153.1-25.6V487.9h153.1V615.3z"/>
<g id="b75708d097f2188dff6617b0f00f7c43">
	<path d="M491,127.9h193v157.3c0,9.3-7.6,16.9-16.9,16.9h-19.3V350c0,12.2-9.7,22-21.7,22c-12,0-21.7-9.9-21.7-22v-47.9h-33.8V350
		c0,12.2-9.7,22-21.7,22c-12,0-21.7-9.9-21.7-22v-47.9h-19.3c-9.3,0-16.9-7.6-16.9-16.9L491,127.9L491,127.9z M453.2,126.6
		c-12.1,0-21.9,10-21.9,22.2v86.9c0,12.3,9.8,22.2,21.9,22.2c12.1,0,21.9-10,21.9-22.2v-86.9C475.1,136.6,465.3,126.6,453.2,126.6z
		 M684,112H491c2.4-27.5,20.2-51.2,45.9-64.9l-18.3-26.9c-2.5-3.6-1.5-8.6,2.1-11.1c3.6-2.5,8.6-1.5,11.1,2.1l20,29.4
		c11.1-3.8,23.1-6,35.8-6c12.7,0,24.7,2.2,35.8,6l20-29.4c2.5-3.6,7.4-4.6,11.1-2.1c3.6,2.5,4.6,7.4,2.1,11.1l-18.3,26.9
		C663.8,60.9,681.6,84.5,684,112z M557.5,74.7c0-5.9-4.8-10.7-10.7-10.7c-5.9,0-10.7,4.8-10.7,10.7c0,5.9,4.8,10.7,10.7,10.7
		S557.5,80.6,557.5,74.7z M640.3,74.7c0-5.9-4.8-10.7-10.7-10.7c-5.9,0-10.7,4.8-10.7,10.7c0,5.9,4.8,10.7,10.7,10.7
		C635.5,85.4,640.3,80.6,640.3,74.7z M721.9,126.6c-12.1,0-21.9,10-21.9,22.3v86.9c0,12.3,9.8,22.3,21.9,22.3
		c12.1,0,21.9-10,21.9-22.3v-86.9C743.7,136.5,734,126.6,721.9,126.6z"/>
</g>
<rect x="132.2" y="284.3" transform="matrix(0.7351 0.6779 -0.6779 0.7351 314.6039 -215.1937)" width="601" height="21.4"/>
</svg>
